<svg width="38" height="39" viewBox="0 0 38 39" fill="none" xmlns="http://www.w3.org/2000/svg">
<rect y="1" width="38" height="38" rx="8" fill="#213757"/>
<path d="M18.63 29.3C17.31 29.3 16.31 28.92 15.63 28.16C14.95 27.38 14.61 26.45 14.61 25.37V17.06H12.48L12.81 14H14.61V10.7L18.33 10.31V14H21.63V17.06H18.33V23.84C18.33 24.64 18.37 25.2 18.45 25.52C18.55 25.82 18.74 26.02 19.02 26.12C19.32 26.2 19.85 26.24 20.61 26.24H21.63L21.3 29.3H18.63Z" fill="white"/>
<path d="M22.5525 25.43H26.0925V29H22.5525V25.43Z" fill="#34B9E0"/>
</svg>
